<svg xmlns="http://www.w3.org/2000/svg" xmlns:xlink="http://www.w3.org/1999/xlink" id="Layer_1" width="145" height="80" x="0" y="0" enable-background="new 260 151 145 80" vector-effect="non-scaling-stroke" version="1.1" viewBox="260 151 145 80" xml:space="preserve"><style type="text/css">.st0{opacity:.5}.st1{fill:#fff}.st2,.st3{fill:none;stroke:#000;stroke-miterlimit:10}.st3{stroke-dasharray:2,2}.st4{fill:none;stroke:#349489;stroke-opacity:.6}.st5{opacity:.6;fill:none;stroke:#bd8a37}.st6{fill:none;stroke:#000}.st7{font-family:&apos;OpenSans&apos;}.st8{font-size:11px}.st9{fill:none;stroke:#000;stroke-miterlimit:10;stroke-dasharray:1.7143,1.7143}</style><g class="st0"><line x1="269.5" x2="269.5" y1="187" y2="167" class="st1"/><g><line x1="269.5" x2="269.5" y1="187" y2="186" class="st2"/><line x1="269.5" x2="269.5" y1="184" y2="169" class="st3"/><line x1="269.5" x2="269.5" y1="168" y2="167" class="st2"/></g></g><g><g><line x1="306" x2="329.5" y1="187.6" y2="192.4" class="st4"/><line x1="306" x2="324.1" y1="187.6" y2="193.6" class="st4"/><line x1="306" x2="316.8" y1="187.6" y2="193.6" class="st4"/><line x1="306" x2="328.6" y1="187.6" y2="190" class="st4"/></g><g><g><g><line x1="306" x2="329.5" y1="187.6" y2="181.9" class="st5"/></g><g><line x1="306" x2="324.1" y1="187.6" y2="180.5" class="st5"/></g><g><line x1="306" x2="316.8" y1="187.6" y2="180.5" class="st5"/></g><g><line x1="306" x2="328.6" y1="187.6" y2="184.8" class="st5"/></g></g></g></g><g><g><line x1="282.9" x2="294.2" y1="187.4" y2="190.1" class="st4"/><line x1="282.9" x2="291.6" y1="187.4" y2="190.8" class="st4"/><line x1="282.9" x2="288.1" y1="187.4" y2="190.8" class="st4"/><line x1="282.9" x2="293.7" y1="187.4" y2="188.7" class="st4"/></g><g><g><g><line x1="282.9" x2="294.2" y1="187.4" y2="184.2" class="st5"/></g><g><line x1="282.9" x2="291.6" y1="187.4" y2="183.4" class="st5"/></g><g><line x1="282.9" x2="288.1" y1="187.4" y2="183.4" class="st5"/></g><g><line x1="282.9" x2="293.7" y1="187.4" y2="185.8" class="st5"/></g></g></g></g><g><g><line x1="341" x2="366.5" y1="187.9" y2="195.9" class="st4"/><line x1="341" x2="360.6" y1="187.9" y2="198" class="st4"/><line x1="341" x2="352.8" y1="187.9" y2="198" class="st4"/><line x1="341" x2="371" y1="187.9" y2="188.4" class="st4"/></g><g><g><g><line x1="341" x2="365.2" y1="187.9" y2="179.3" class="st5"/></g><g><line x1="341" x2="360.6" y1="187.9" y2="176.2" class="st5"/></g><g><line x1="341" x2="352.8" y1="187.9" y2="176.2" class="st5"/></g><g><line x1="341" x2="370.5" y1="187.9" y2="184.8" class="st5"/></g></g></g></g><line x1="263.6" x2="380.5" y1="188.1" y2="188.1" class="st6"/><circle cx="307" cy="188.1" r="2.1" class="st6"/><circle cx="283.7" cy="188.1" r="1.3" class="st6"/><circle cx="342" cy="188.1" r="5.9" class="st6"/><text class="st0 st7 st8" transform="matrix(1 0 0 1 261 161)">Stroke</text><text class="st0 st7 st8" transform="matrix(1 0 0 1 314 161)">Sampled strokes</text><text class="st0 st7 st8" transform="matrix(1 0 0 1 274 225)">Probability pen is raised</text><g class="st0"><line x1="341.5" x2="341.5" y1="211" y2="191" class="st1"/><g><line x1="341.5" x2="341.5" y1="211" y2="210" class="st2"/><line x1="341.5" x2="341.5" y1="208" y2="193" class="st3"/><line x1="341.5" x2="341.5" y1="192" y2="191" class="st2"/></g></g><g class="st0"><line x1="318.5" x2="318.5" y1="181" y2="167" class="st1"/><g><line x1="318.5" x2="318.5" y1="181" y2="180" class="st2"/><line x1="318.5" x2="318.5" y1="178.3" y2="168.9" class="st9"/><line x1="318.5" x2="318.5" y1="168" y2="167" class="st2"/></g></g></svg>